PERFORMER "Flying Lotus"
TITLE "Essential Mix (2009-01-02) (Essential Mix Of The Year) [TMB]"
FILE "Essential Mix - 2009-01-02 - Flying Lotus (Essential Mix Of The Year).mp3" MP3
  TRACK 01 AUDIO
    PERFORMER "Essential Mix"
    TITLE "Intro"
    INDEX 01 00:00:00
  TRACK 02 AUDIO
    PERFORMER "Alice Coltrane"
    TITLE "Galaxy In Turiya"
    INDEX 01 01:26:00
  TRACK 03 AUDIO
    PERFORMER "Charlie Hayden & Egberto Gisomonti / Gonjasufi"
    TITLE "Testament"
    INDEX 01 06:14:00
  TRACK 04 AUDIO
    PERFORMER "Flying Lotus"
    TITLE "Massage Situation (Stripped)"
    INDEX 01 09:10:00
  TRACK 05 AUDIO
    PERFORMER "Dimlite"
    TITLE "Sun Sized Twinkles"
    INDEX 01 12:10:00
  TRACK 06 AUDIO
    PERFORMER "Flying Lotus"
    TITLE "Robertaflack Ft. Dolly"
    INDEX 01 14:46:00
  TRACK 07 AUDIO
    PERFORMER "Flying Lotus"
    TITLE "Robertaflack (Mike Slott Reflunk)"
    INDEX 01 15:44:00
  TRACK 08 AUDIO
    PERFORMER "Ahu"
    TITLE "I Know All The Bitches (Bullion Remix)"
    INDEX 01 17:17:00
  TRACK 09 AUDIO
    PERFORMER "Heralds Of Change"
    TITLE "Amuse"
    INDEX 01 18:31:00
  TRACK 10 AUDIO
    PERFORMER "Carlos Y Gaby"
    TITLE "Happy Summer Solstice"
    INDEX 01 19:47:00
  TRACK 11 AUDIO
    PERFORMER "Pudge"
    TITLE "Yung Infamous"
    INDEX 01 21:13:00
  TRACK 12 AUDIO
    PERFORMER "Dorothy Ashby"
    TITLE "Myself When Young"
    INDEX 01 22:45:00
  TRACK 13 AUDIO
    PERFORMER "Nosaj Thing"
    TITLE "Bach"
    INDEX 01 23:02:00
  TRACK 14 AUDIO
    PERFORMER "LL"
    TITLE "Turf Day"
    INDEX 01 24:05:00
  TRACK 15 AUDIO
    PERFORMER "Flying Lotus"
    TITLE "Infinitum (Dimlite Remix)"
    INDEX 01 25:36:00
  TRACK 16 AUDIO
    PERFORMER "Clark"
    TITLE "Springtime Epigram"
    INDEX 01 27:47:00
  TRACK 17 AUDIO
    PERFORMER "Burial"
    TITLE "Shutta"
    INDEX 01 28:41:00
  TRACK 18 AUDIO
    PERFORMER "Blank Blue"
    TITLE "Blank Blue (Flying Lotus Remix)"
    INDEX 01 30:51:00
  TRACK 19 AUDIO
    PERFORMER "Daedelus"
    TITLE "Im String Struck"
    INDEX 01 32:51:00
  TRACK 20 AUDIO
    PERFORMER "MHE"
    TITLE "Untitled"
    INDEX 01 34:22:00
  TRACK 21 AUDIO
    PERFORMER "Daedelus / Madvillain"
    TITLE "Experience/Accordion (Flying Lotus Live Remix)"
    INDEX 01 36:01:00
  TRACK 22 AUDIO
    PERFORMER "Hudson Mohawke"
    TITLE "Zoo0000oom"
    INDEX 01 37:30:00
  TRACK 23 AUDIO
    PERFORMER "Rustie"
    TITLE "Black Block Remix"
    INDEX 01 38:15:00
  TRACK 24 AUDIO
    PERFORMER "Teebs+Jackhigh"
    TITLE "Idea 1 (Clutch)"
    INDEX 01 39:09:00
  TRACK 25 AUDIO
    PERFORMER "Matthewdavid"
    TITLE "Tallahassee Tapes"
    INDEX 01 40:34:00
  TRACK 26 AUDIO
    PERFORMER "Martyn / Flying Lotus"
    TITLE "Vancouver + Pet Monster Shotglass"
    INDEX 01 43:37:00
  TRACK 27 AUDIO
    PERFORMER "Fulgeance"
    TITLE "Chico (Dorian Concept Remix)"
    INDEX 01 45:39:00
  TRACK 28 AUDIO
    PERFORMER "Joker"
    TITLE "Solid State"
    INDEX 01 46:38:00
  TRACK 29 AUDIO
    PERFORMER "Rusko"
    TITLE "Moanerz"
    INDEX 01 48:54:00
  TRACK 30 AUDIO
    PERFORMER "Daddy Kev"
    TITLE "Invite8"
    INDEX 01 50:25:00
  TRACK 31 AUDIO
    PERFORMER "Ras G"
    TITLE "Star Messenger"
    INDEX 01 51:42:00
  TRACK 32 AUDIO
    PERFORMER "Madlib"
    TITLE "Unreleased Gem"
    INDEX 01 52:34:00
 TRACK 33 AUDIO
    PERFORMER "SAMIYAM"
    TITLE "Cheesecake Backslap"
    INDEX 01 54:37:00
  TRACK 34 AUDIO
    PERFORMER "Knowledge"
    TITLE "Dawn"
    INDEX 01 55:17:00
  TRACK 35 AUDIO
    PERFORMER "Flyamsam"
    TITLE "Princess Toadstool"
    INDEX 01 56:29:00
  TRACK 36 AUDIO
    PERFORMER "Sa-Ra"
    TITLE "Hollywood"
    INDEX 01 57:36:00
  TRACK 37 AUDIO
    PERFORMER "Muhsinah / Flying Lotus"
    TITLE "With Me/ Melt"
    INDEX 01 59:40:00
  TRACK 38 AUDIO
    PERFORMER "Flying Lotus"
    TITLE "Dissecto"
    INDEX 01 61:16:00
  TRACK 39 AUDIO
    PERFORMER "Flying Lotus"
    TITLE "Breathe"
    INDEX 01 62:37:00
  TRACK 40 AUDIO
    PERFORMER "Mike Slott"
    TITLE "Home"
    INDEX 01 64:47:00
  TRACK 41 AUDIO
    PERFORMER "Flying Lotus"
    TITLE "Sangria Spin Cycles (Ambient Mix)"
    INDEX 01 66:59:00
  TRACK 42 AUDIO
    PERFORMER "Danny Breaks"
    TITLE "Cosmic Dust"
    INDEX 01 68:22:00
  TRACK 43 AUDIO
    PERFORMER "Flying Lotus"
    TITLE "Beginners Falafel (Free The Robots Remix)"
    INDEX 01 70:40:00
  TRACK 44 AUDIO
    PERFORMER "SAMIYAM"
    TITLE "Falafel Cannon"
    INDEX 01 73:01:00
  TRACK 45 AUDIO
    PERFORMER "Flying Lotus"
    TITLE "Beginners Falafel"
    INDEX 01 74:02:00
  TRACK 46 AUDIO
    PERFORMER "Slum Village"
    TITLE "Players (Instrumental)"
    INDEX 01 75:03:00
  TRACK 47 AUDIO
    PERFORMER "Flying Lotus"
    TITLE "Cackle"
    INDEX 01 75:25:00
  TRACK 48 AUDIO
    PERFORMER "Flying Lotus"
    TITLE "Raise It Up"
    INDEX 01 75:56:00
  TRACK 49 AUDIO
    PERFORMER "Osborne"
    TITLE "Definition Of A Breakdown"
    INDEX 01 76:27:00
  TRACK 50 AUDIO
    PERFORMER "Baron Zen"
    TITLE "Burn Rubber (Dam-Funk Remix)"
    INDEX 01 77:28:00
  TRACK 51 AUDIO
    PERFORMER "Mono/Poly"
    TITLE "Needsdeodorantbitch"
    INDEX 01 80:06:00
  TRACK 52 AUDIO
    PERFORMER "Chocolate Star / Nelly Furtado"
    TITLE "Stay With Me/Promiscuous"
    INDEX 01 82:37:00
  TRACK 53 AUDIO
    PERFORMER "Gonjasufi"
    TITLE "Suzie Q"
    INDEX 01 83:34:00
  TRACK 54 AUDIO
    PERFORMER "Kiing Midas"
    TITLE "Lost (Flying Lotus Live Remix)"
    INDEX 01 85:27:00
  TRACK 55 AUDIO
    PERFORMER "Rusko / Flying Lotus"
    TITLE "Terminal3 / Tea Leaf (Dancers Live Remix)"
    INDEX 01 86:25:00
  TRACK 56 AUDIO
    PERFORMER "Daedelus"
    TITLE "Hours Minutes Seconds (Beat Invitational Version)"
    INDEX 01 88:25:00
  TRACK 57 AUDIO
    PERFORMER "Kode9 & Flying Lotus"
    TITLE "Kryon"
    INDEX 01 92:06:00
  TRACK 58 AUDIO
    PERFORMER "Zomby"
    TITLE "Spliff Dub (Rustie Remix)"
    INDEX 01 93:42:00
  TRACK 59 AUDIO
    PERFORMER "Busta Rhymes"
    TITLE "What Up"
    INDEX 01 95:12:00
  TRACK 60 AUDIO
    PERFORMER "SAMIYAM"
    TITLE "Crystal Lake"
    INDEX 01 95:27:00
  TRACK 61 AUDIO
    PERFORMER "Weather Report"
    TITLE "River People"
    INDEX 01 96:48:00
  TRACK 62 AUDIO
    PERFORMER "SAMIYAM"
    TITLE "Flintstone Car"
    INDEX 01 97:06:00
  TRACK 63 AUDIO
    PERFORMER "Flying Lotus"
    TITLE "Backpack Caviar"
    INDEX 01 98:52:00
  TRACK 64 AUDIO
    PERFORMER "Radiohead"
    TITLE "Reckoner (Flying Lotus Remix)"
    INDEX 01 100:40:00
  TRACK 65 AUDIO
    PERFORMER "Bjork"
    TITLE "All Is Full Of Love"
    INDEX 01 103:48:00
  TRACK 66 AUDIO
    PERFORMER "Broadcast"
    TITLE "Winter Now"
    INDEX 01 108:05:00
  TRACK 67 AUDIO
    PERFORMER "Portishead"
    TITLE "Elysium"
    INDEX 01 108:42:00
  TRACK 68 AUDIO
    PERFORMER "Linda Perhacks"
    TITLE "Hey Now Who Really Cares"
    INDEX 01 111:30:00
  TRACK 69 AUDIO
    PERFORMER "Flying Lotus"
    TITLE "Infinitum (Exile Remix)"
    INDEX 01 114:02:00
  TRACK 70 AUDIO
    PERFORMER "Flying Lotus"
    TITLE "Live Set Practice Run"
    INDEX 01 116:58:00
  TRACK 71 AUDIO
    PERFORMER "Essential Mix"
    TITLE "Outro"
    INDEX 01 119:04:00